<svg xmlns="http://www.w3.org/2000/svg" width="1000mm" height="1000mm" viewBox="0 0 1000 1000" preserveAspectRatio="xMidYMid meet">
  <path d="M 455.714 156.429 L 437.857 208.571 L 410.714 278.571 L 390 337.857 L 382.143 367.143 L 378.571 388.571 L 377.143 389.286 L 358.571 381.429 L 330.714 373.571 L 309.286 370 L 281.429 368.571 L 255.714 370.714 L 226.429 377.143 L 200 387.143 L 179.286 397.857 L 152.857 416.429 L 135.714 432.857 L 123.571 447.857 L 112.857 465 L 103.571 485.714 L 97.857 505.714 L 95 525 L 95 547.857 L 97.143 564.286 L 100 576.429 L 108.571 599.286 L 119.286 617.857 L 130 631.429 L 140.714 642.143 L 158.571 655.714 L 175.714 665 L 195 672.143 L 236.429 683.571 L 238.571 683.571 L 249.286 638.571 L 257.143 620.714 L 266.429 607.143 L 275.714 597.857 L 288.571 590 L 297.143 587.143 L 306.429 585.714 L 320 586.429 L 332.857 590 L 352.143 600.714 L 363.571 610 L 372.857 619.286 L 384.286 633.571 L 380.714 647.857 L 379.286 659.286 L 380 678.571 L 378.571 678.571 L 361.429 655.714 L 322.143 685 L 302.143 705.714 L 286.429 730 L 277.857 752.143 L 274.286 770.714 L 275 795.714 L 280.714 817.857 L 287.857 832.857 L 298.571 847.143 L 313.571 860 L 329.286 868.571 L 352.143 875.714 L 367.143 877.857 L 394.286 877.857 L 418.571 874.286 L 430 903.571 L 437.143 917.857 L 450 938.571 L 465.714 958.571 L 501.429 995.714 L 533.571 962.143 L 551.429 940 L 562.857 922.143 L 570.714 907.143 L 577.857 890.714 L 582.857 875 L 584.286 873.571 L 603.571 877.143 L 630.714 877.857 L 655 874.286 L 672.143 868.571 L 692.143 857.143 L 706.429 843.571 L 715 831.429 L 723.571 811.429 L 727.857 790 L 727.857 770 L 724.286 751.429 L 718.571 735.714 L 713.571 725.714 L 700.714 706.429 L 683.571 687.857 L 641.429 655.714 L 638.571 657.143 L 622.857 678.571 L 622.143 677.857 L 622.143 654.286 L 620 642.143 L 617.143 633.571 L 624.286 624.286 L 638.571 609.286 L 656.429 595.714 L 667.857 590 L 683.571 585.714 L 703.571 586.429 L 714.286 590 L 722.857 595 L 736.429 607.857 L 740.714 613.571 L 748.571 627.857 L 753.571 641.429 L 763.571 683.571 L 813.571 669.286 L 837.143 658.571 L 851.429 649.286 L 873.571 628.571 L 884.286 614.286 L 895 594.286 L 903.571 567.857 L 906.429 549.286 L 906.429 522.143 L 903.571 504.286 L 896.429 480.714 L 885 457.857 L 873.571 441.429 L 853.571 420 L 841.429 410 L 822.143 397.143 L 802.857 387.143 L 789.286 381.429 L 769.286 375 L 753.571 371.429 L 731.429 368.571 L 702.143 368.571 L 679.286 371.429 L 650 378.571 L 625 388.571 L 622.143 387.143 L 619.286 367.857 L 612.143 340.714 L 591.429 281.429 L 561.429 204.286 L 544.286 154.286 L 502.143 7.857 L 500.714 5.714 Z M 502.143 90.714 L 513.571 147.143 L 518.571 165.714 L 532.143 205 L 572.143 308.571 L 588.571 357.857 L 596.429 397.143 L 597.143 425.714 L 595.714 436.429 L 620 421.429 L 639.286 412.143 L 665 402.857 L 682.857 398.571 L 705 395.714 L 728.571 395.714 L 750 398.571 L 767.143 402.857 L 790 411.429 L 811.429 422.857 L 832.857 438.571 L 847.857 453.571 L 860 470 L 870.714 490.714 L 876.429 508.571 L 879.286 527.143 L 879.286 545 L 875.714 566.429 L 870 582.857 L 858.571 602.857 L 847.857 615.714 L 832.857 628.571 L 811.429 640.714 L 797.143 645.714 L 783.571 648.571 L 775 620 L 765 600.714 L 755 587.143 L 745.714 577.857 L 732.857 568.571 L 724.286 564.286 L 711.429 560 L 697.143 557.857 L 687.143 557.857 L 675 559.286 L 657.857 564.286 L 645.714 570 L 634.286 577.143 L 617.143 591.429 L 606.429 602.857 L 595.714 616.429 L 586.429 630.714 L 590.714 640 L 594.286 652.857 L 595 673.571 L 592.143 687.143 L 589.286 695 L 582.857 707.143 L 577.143 715 L 585.714 724.286 L 593.571 729.286 L 597.857 730.714 L 608.571 730 L 615 727.143 L 622.143 722.143 L 631.429 712.857 L 644.286 695.714 L 647.143 694.286 L 662.857 706.429 L 674.286 717.857 L 686.429 734.286 L 693.571 747.857 L 697.143 757.857 L 700 770.714 L 700 790.714 L 697.857 801.429 L 691.429 817.143 L 684.286 827.143 L 669.286 839.286 L 652.857 846.429 L 635 850 L 607.143 850 L 580.714 845 L 563.571 838.571 L 560.714 855 L 554.286 875.714 L 541.429 904.286 L 523.571 931.429 L 501.429 955.714 L 477.857 930 L 462.143 906.429 L 448.571 877.143 L 442.143 857.143 L 438.571 838.571 L 420 845.714 L 397.857 850 L 371.429 850.714 L 356.429 848.571 L 340.714 843.571 L 324.286 833.571 L 314.286 822.857 L 305.714 806.429 L 302.143 791.429 L 302.143 771.429 L 307.857 750 L 315 735.714 L 322.857 724.286 L 330.714 715 L 345.714 701.429 L 355.714 694.286 L 367.857 710 L 377.143 720 L 386.429 727.143 L 395 730.714 L 405 730.714 L 412.857 727.143 L 425 715 L 418.571 706.429 L 413.571 697.143 L 409.286 685.714 L 407.143 675.714 L 406.429 665 L 407.857 651.429 L 415 630 L 402.143 611.429 L 388.571 595.714 L 367.857 577.857 L 357.857 571.429 L 342.857 564.286 L 327.857 560 L 317.857 558.571 L 302.143 558.571 L 287.143 561.429 L 278.571 564.286 L 262.143 573.571 L 255 579.286 L 244.286 590.714 L 237.143 600.714 L 229.286 615 L 222.143 633.571 L 217.857 650 L 197.857 644.286 L 180 636.429 L 161.429 623.571 L 148.571 610.714 L 137.857 595.714 L 130.714 581.429 L 125 563.571 L 122.143 543.571 L 122.857 522.143 L 126.429 504.286 L 134.286 483.571 L 144.286 466.429 L 155 452.857 L 176.429 432.857 L 198.571 418.571 L 217.857 409.286 L 241.429 401.429 L 264.286 397.143 L 298.571 396.429 L 311.429 397.857 L 337.143 403.571 L 362.857 412.857 L 387.143 425 L 405.714 437.143 L 404.286 427.857 L 404.286 402.857 L 407.143 381.429 L 412.857 357.143 L 435 292.143 L 461.429 224.286 L 479.286 175 L 487.143 147.143 L 500 86.429 Z M 497.143 165 L 488.571 191.429 L 442.143 313.571 L 429.286 351.429 L 423.571 372.143 L 418.571 402.143 L 418.571 431.429 L 421.429 451.429 L 425.714 469.286 L 425 470 L 415 460.714 L 400 449.286 L 377.143 435 L 356.429 425 L 332.143 416.429 L 312.857 412.143 L 292.857 410 L 268.571 410.714 L 245 415 L 218.571 424.286 L 195.714 436.429 L 175 452.143 L 162.143 465.714 L 149.286 485 L 140.714 505.714 L 136.429 528.571 L 136.429 545 L 138.571 559.286 L 142.857 573.571 L 150 588.571 L 157.857 600 L 167.857 610.714 L 182.143 621.429 L 192.857 627.143 L 206.429 632.143 L 208.571 632.143 L 211.429 621.429 L 221.429 600 L 237.143 577.857 L 247.857 567.143 L 259.286 558.571 L 272.857 551.429 L 288.571 546.429 L 303.571 544.286 L 317.143 544.286 L 332.143 546.429 L 346.429 550.714 L 360.714 557.143 L 375.714 566.429 L 390.714 578.571 L 404.286 592.143 L 420.714 612.857 L 431.429 630.714 L 422.857 650 L 420.714 662.143 L 420.714 670.714 L 422.143 680 L 425.714 690.714 L 432.857 703.571 L 441.429 713.571 L 441.429 715.714 L 432.143 728.571 L 420 739.286 L 411.429 743.571 L 405.714 745 L 394.286 745 L 385 742.143 L 374.286 735.714 L 359.286 721.429 L 352.857 713.571 L 340 725.714 L 332.857 734.286 L 325 746.429 L 320 757.143 L 315.714 776.429 L 315.714 785.714 L 317.857 797.857 L 324.286 812.857 L 334.286 823.571 L 346.429 830.714 L 364.286 835.714 L 392.857 836.429 L 410.714 833.571 L 434.286 825.714 L 442.143 821.429 L 449.286 815.714 L 453.571 844.286 L 457.857 860.714 L 465.714 882.143 L 479.286 907.857 L 489.286 922.143 L 501.429 935.714 L 517.857 915.714 L 528.571 898.571 L 535.714 884.286 L 545.714 856.429 L 550 837.857 L 552.857 815.714 L 561.429 822.143 L 570 826.429 L 589.286 832.857 L 612.857 836.429 L 635.714 835.714 L 655 830.714 L 668.571 822.857 L 678.571 811.429 L 685 795 L 686.429 785.714 L 686.429 775.714 L 685 766.429 L 681.429 755 L 675.714 743.571 L 667.857 732.143 L 649.286 713.571 L 639.286 725 L 626.429 736.429 L 616.429 742.143 L 606.429 745 L 597.857 745 L 591.429 743.571 L 581.429 738.571 L 570.714 729.286 L 560 714.286 L 566.429 707.143 L 572.143 698.571 L 577.857 686.429 L 580.714 675 L 580.714 657.857 L 579.286 650.714 L 575 639.286 L 570 631.429 L 575.714 620.714 L 592.857 597.143 L 610.714 578.571 L 620 570.714 L 634.286 560.714 L 650.714 552.143 L 665 547.143 L 680 544.286 L 692.857 543.571 L 708.571 545 L 728.571 550.714 L 742.143 557.857 L 752.857 565.714 L 766.429 579.286 L 776.429 592.857 L 787.143 612.857 L 793.571 631.429 L 795.714 631.429 L 805.714 627.857 L 825 617.143 L 841.429 602.143 L 848.571 592.857 L 858.571 573.571 L 862.857 559.286 L 865 546.429 L 865 526.429 L 861.429 507.143 L 856.429 492.857 L 850.714 481.429 L 840 465.714 L 825.714 450.714 L 805.714 435.714 L 784.286 424.286 L 763.571 416.429 L 746.429 412.143 L 731.429 410 L 701.429 410 L 675.714 414.286 L 655 420.714 L 639.286 427.143 L 612.857 441.429 L 591.429 456.429 L 576.429 470 L 575.714 469.286 L 580.714 447.143 L 582.857 430.714 L 582.857 403.571 L 577.857 372.857 L 563.571 326.429 L 514.286 197.143 L 500 151.429 Z M 508.571 235 L 521.429 275 L 552.857 360 L 557.857 380 L 560.714 397.143 L 562.143 411.429 L 562.143 442.143 L 560 462.857 L 552.857 497.143 L 539.286 539.286 L 561.429 512.857 L 580 494.286 L 604.286 473.571 L 627.857 457.143 L 640 450 L 665 438.571 L 689.286 431.429 L 713.571 428.571 L 731.429 429.286 L 755.714 434.286 L 767.857 438.571 L 784.286 446.429 L 801.429 457.857 L 817.857 472.857 L 830.714 489.286 L 841.429 510.714 L 845.714 529.286 L 845 551.429 L 839.286 569.286 L 827.857 587.143 L 818.571 597.143 L 807.143 606.429 L 805.714 605.714 L 803.571 599.286 L 796.429 585.714 L 787.143 572.143 L 780 563.571 L 763.571 548.571 L 749.286 539.286 L 733.571 532.143 L 716.429 527.143 L 702.143 525 L 677.857 525 L 657.143 529.286 L 638.571 536.429 L 619.286 547.143 L 604.286 557.857 L 578.571 582.143 L 562.143 604.286 L 553.571 622.143 L 552.143 632.857 L 556.429 640 L 561.429 655 L 562.857 665.714 L 562.143 675.714 L 559.286 686.429 L 555 695 L 550 702.143 L 540 712.143 L 550.714 730 L 558.571 740 L 567.857 749.286 L 580 757.857 L 592.143 762.857 L 605.714 764.286 L 620.714 760.714 L 636.429 751.429 L 650 738.571 L 657.143 748.571 L 664.286 762.857 L 667.857 775 L 667.857 789.286 L 666.429 794.286 L 662.143 801.429 L 652.857 809.286 L 643.571 813.571 L 633.571 816.429 L 615 817.857 L 595 814.286 L 581.429 809.286 L 568.571 802.857 L 546.429 787.857 L 533.571 776.429 L 534.286 794.286 L 532.857 815.714 L 530.714 832.143 L 526.429 852.143 L 518.571 875 L 508.571 893.571 L 501.429 902.857 L 494.286 894.286 L 486.429 880.714 L 481.429 869.286 L 475.714 851.429 L 471.429 831.429 L 469.286 815 L 467.857 792.143 L 468.571 776.429 L 455 788.571 L 431.429 804.286 L 414.286 812.143 L 402.857 815.714 L 390.714 817.857 L 375.714 817.857 L 355.714 812.857 L 345.714 807.143 L 339.286 800.714 L 334.286 790 L 334.286 775 L 337.143 765 L 343.571 751.429 L 352.143 739.286 L 364.286 750.714 L 380.714 760.714 L 393.571 764.286 L 407.857 763.571 L 420 759.286 L 433.571 750 L 447.857 735 L 455 725 L 462.143 712.143 L 455 705.714 L 446.429 694.286 L 442.143 685 L 440 677.143 L 440 657.143 L 444.286 642.857 L 450 632.857 L 448.571 623.571 L 440 605 L 423.571 582.857 L 405.714 565 L 380.714 546.429 L 362.143 536.429 L 342.857 529.286 L 326.429 525.714 L 297.143 525.714 L 278.571 529.286 L 262.143 535 L 250.714 540.714 L 237.143 550 L 227.857 557.857 L 215 572.143 L 202.857 590.714 L 196.429 605.714 L 194.286 607.143 L 175 589.286 L 167.143 578.571 L 160 564.286 L 155.714 545 L 156.429 526.429 L 162.143 506.429 L 168.571 493.571 L 174.286 485 L 189.286 467.857 L 202.857 456.429 L 217.143 447.143 L 230 440.714 L 256.429 432.143 L 277.143 429.286 L 300 430 L 319.286 433.571 L 344.286 442.143 L 370.714 455.714 L 392.143 470 L 415 488.571 L 439.286 512.143 L 462.143 539.286 L 448.571 497.143 L 441.429 462.857 L 439.286 442.857 L 440 402.143 L 443.571 379.286 L 450 355 L 476.429 284.286 L 490.714 240.714 L 499.286 207.143 L 500.714 205.714 Z" fill="#000000" fill-rule="evenodd" clip-rule="evenodd"/>
  <path d="M 500 88.571 L 487.857 148.571 L 482.143 169.286 L 470 204.286 L 429.286 310.714 L 413.571 358.571 L 408.571 379.286 L 405.714 397.857 L 405 423.571 L 406.429 437.143 L 405 437.857 L 387.857 426.429 L 362.143 413.571 L 338.571 405 L 313.571 399.286 L 293.571 397.143 L 266.429 397.857 L 245.714 401.429 L 224.286 407.857 L 197.857 420 L 177.857 432.857 L 160 448.571 L 146.429 465 L 135 484.286 L 127.143 505.714 L 123.571 525 L 123.571 547.857 L 126.429 565 L 132.143 582.143 L 140.714 598.571 L 152.857 614.286 L 163.571 624.286 L 180.714 635.714 L 192.857 641.429 L 217.857 648.571 L 220.714 635 L 229.286 612.857 L 242.143 592.143 L 257.143 576.429 L 263.571 571.429 L 277.857 563.571 L 285.714 560.714 L 299.286 557.857 L 312.143 557.143 L 329.286 559.286 L 343.571 563.571 L 357.143 570 L 369.286 577.857 L 380 586.429 L 395 601.429 L 408.571 618.571 L 416.429 630.714 L 411.429 642.143 L 407.857 658.571 L 407.857 673.571 L 410.714 687.143 L 414.286 696.429 L 425.714 715.714 L 417.857 724.286 L 412.143 728.571 L 403.571 732.143 L 396.429 732.143 L 387.143 728.571 L 380 723.571 L 368.571 712.143 L 356.429 695.714 L 350 699.286 L 340 707.143 L 325.714 722.143 L 317.857 732.857 L 309.286 749.286 L 305.714 759.286 L 302.857 774.286 L 302.857 788.571 L 305.714 802.857 L 312.857 819.286 L 321.429 830 L 332.857 838.571 L 349.286 845.714 L 367.143 849.286 L 395 849.286 L 421.429 844.286 L 438.571 837.857 L 440 840 L 441.429 850 L 448.571 874.286 L 453.571 887.143 L 462.857 905.714 L 480 931.429 L 501.429 954.286 L 523.571 930 L 540.714 903.571 L 554.286 872.857 L 563.571 837.857 L 587.143 845.714 L 610.714 849.286 L 631.429 849.286 L 651.429 845.714 L 670 837.857 L 677.857 832.143 L 685 825 L 690 817.857 L 696.429 802.857 L 699.286 788.571 L 699.286 773.571 L 697.143 761.429 L 692.143 747.143 L 683.571 731.429 L 675 720 L 660 705 L 646.429 695 L 635 710 L 625 720.714 L 617.857 726.429 L 607.143 731.429 L 600 732.143 L 590 728.571 L 583.571 723.571 L 576.429 715 L 583.571 704.286 L 589.286 692.143 L 592.857 680.714 L 594.286 670 L 594.286 661.429 L 592.143 647.857 L 588.571 637.143 L 585.714 632.143 L 585.714 630 L 593.571 617.857 L 607.143 600.714 L 622.143 585.714 L 632.857 577.143 L 646.429 568.571 L 660.714 562.143 L 682.857 557.143 L 700.714 557.143 L 712.857 559.286 L 723.571 562.857 L 735.714 569.286 L 749.286 580 L 757.857 589.286 L 768.571 605 L 775.714 619.286 L 780.714 632.857 L 784.286 647.857 L 805 642.143 L 823.571 633.571 L 841.429 620.714 L 854.286 607.143 L 863.571 593.571 L 870.714 578.571 L 876.429 558.571 L 878.571 534.286 L 876.429 513.571 L 870 491.429 L 862.857 476.429 L 848.571 455.714 L 836.429 442.857 L 820.714 430 L 803.571 419.286 L 775 406.429 L 752.143 400 L 733.571 397.143 L 711.429 396.429 L 685 399.286 L 661.429 405 L 640 412.857 L 614.286 425.714 L 595.714 437.857 L 594.286 437.143 L 596.429 419.286 L 595.714 400.714 L 593.571 384.286 L 587.857 359.286 L 572.143 311.429 L 535.714 217.143 L 520 173.571 L 512.857 148.571 Z M 500 149.286 L 501.429 150 L 506.429 170.714 L 517.143 202.143 L 562.857 321.429 L 578.571 371.429 L 583.571 400 L 584.286 425 L 582.857 440 L 577.143 467.857 L 592.857 454.286 L 615.714 438.571 L 638.571 426.429 L 662.143 417.143 L 687.857 410.714 L 705.714 408.571 L 726.429 408.571 L 751.429 412.143 L 778.571 420.714 L 796.429 429.286 L 813.571 440 L 832.143 455.714 L 846.429 472.857 L 857.143 492.143 L 864.286 514.286 L 866.429 531.429 L 865.714 549.286 L 862.857 563.571 L 857.857 577.857 L 848.571 594.286 L 840 605 L 826.429 617.143 L 806.429 628.571 L 794.286 632.857 L 792.143 630.714 L 786.429 613.571 L 780 600.714 L 771.429 587.143 L 762.143 575.714 L 750.714 565 L 739.286 557.143 L 725.714 550.714 L 710.714 546.429 L 700.714 545 L 682.857 545 L 669.286 547.143 L 651.429 552.857 L 637.143 560 L 627.143 566.429 L 613.571 577.143 L 597.143 593.571 L 580 615.714 L 571.429 630.714 L 575.714 638.571 L 580 650 L 582.143 660.714 L 582.143 672.143 L 577.857 689.286 L 572.857 699.286 L 561.429 715 L 570 727.143 L 577.143 734.286 L 584.286 739.286 L 595.714 743.571 L 608.571 743.571 L 615.714 741.429 L 627.857 734.286 L 640.714 722.143 L 649.286 712.143 L 663.571 725.714 L 670 733.571 L 677.143 744.286 L 682.143 754.286 L 687.143 772.857 L 687.143 788.571 L 685 798.571 L 680 810.714 L 670.714 822.143 L 662.857 827.857 L 655.714 831.429 L 637.857 836.429 L 608.571 837.143 L 594.286 835 L 569.286 827.143 L 552.857 817.143 L 552.857 825 L 549.286 846.429 L 545.714 860 L 536.429 885 L 529.286 899.286 L 520 914.286 L 507.857 930 L 501.429 936.429 L 497.857 933.571 L 485 917.857 L 476.429 905 L 465 882.857 L 455.714 857.143 L 450 830 L 449.286 817.143 L 435 826.429 L 412.143 834.286 L 387.857 837.857 L 367.143 837.143 L 349.286 832.857 L 333.571 824.286 L 322.857 812.143 L 316.429 796.429 L 315 788.571 L 315 772.857 L 320.714 752.857 L 326.429 742.143 L 335.714 729.286 L 352.857 712.857 L 355.714 715 L 362.857 724.286 L 375.714 735.714 L 385.714 741.429 L 396.429 744.286 L 407.857 743.571 L 419.286 738.571 L 432.857 726.429 L 440.714 715 L 427.857 697.143 L 423.571 687.857 L 420 673.571 L 420 659.286 L 421.429 651.429 L 424.286 642.857 L 430.714 631.429 L 420.714 614.286 L 405.714 595 L 387.857 577.143 L 380 570.714 L 366.429 561.429 L 354.286 555 L 343.571 550.714 L 326.429 546.429 L 293.571 546.429 L 277.143 550.714 L 262.143 557.857 L 243.571 572.143 L 232.857 584.286 L 225 595.714 L 215.714 613.571 L 209.286 632.857 L 207.857 633.571 L 192.143 627.857 L 179.286 620.714 L 170.714 614.286 L 158.571 602.143 L 150.714 591.429 L 143.571 577.857 L 138.571 563.571 L 135.714 548.571 L 135.714 525 L 139.286 507.143 L 148.571 484.286 L 160 467.143 L 177.857 448.571 L 196.429 435 L 217.857 423.571 L 241.429 415 L 265.714 410 L 297.857 409.286 L 315 411.429 L 335.714 416.429 L 357.143 424.286 L 381.429 436.429 L 403.571 450.714 L 424.286 467.857 L 420 449.286 L 417.143 426.429 L 417.857 398.571 L 422.857 370.714 L 431.429 341.429 L 442.143 310.714 L 489.286 186.429 Z" fill="#FFFFFF" fill-rule="evenodd" clip-rule="evenodd"/>
  <path d="M 500.714 206.429 L 491.429 240.714 L 477.143 284.286 L 450.714 355 L 444.286 379.286 L 440.714 402.143 L 440 442.857 L 442.143 462.857 L 449.286 497.143 L 462.857 537.857 L 462.143 540 L 438.571 512.143 L 415 489.286 L 392.143 470.714 L 370.714 456.429 L 344.286 442.857 L 319.286 434.286 L 300 430.714 L 277.143 430 L 256.429 432.857 L 230 441.429 L 213.571 450 L 200 459.286 L 189.286 468.571 L 175 485 L 169.286 493.571 L 162.857 506.429 L 157.857 522.143 L 156.429 532.143 L 156.429 545 L 160.714 564.286 L 167.857 578.571 L 175.714 589.286 L 194.286 606.429 L 195.714 605.714 L 202.143 590.714 L 212.143 575 L 222.857 562.143 L 237.143 549.286 L 250.714 540 L 262.143 534.286 L 278.571 528.571 L 297.143 525 L 326.429 525 L 342.857 528.571 L 362.143 535.714 L 380.714 545.714 L 405.714 564.286 L 424.286 582.857 L 440.714 605 L 449.286 623.571 L 450.714 632.857 L 445 642.857 L 440.714 657.143 L 440.714 677.143 L 442.857 685 L 447.143 694.286 L 455.714 705.714 L 462.857 712.143 L 455.714 725 L 448.571 735 L 433.571 750.714 L 420 760 L 410.714 763.571 L 404.286 765 L 393.571 765 L 380.714 761.429 L 367.143 753.571 L 352.143 740 L 344.286 751.429 L 337.857 765 L 335 775 L 335 790 L 340 800.714 L 345.714 806.429 L 355.714 812.143 L 370.714 816.429 L 390.714 817.143 L 405.714 814.286 L 421.429 808.571 L 431.429 803.571 L 449.286 792.143 L 468.571 775.714 L 470 815 L 472.143 831.429 L 476.429 851.429 L 486.429 879.286 L 495 894.286 L 501.429 902.143 L 507.857 893.571 L 517.857 875 L 525.714 852.143 L 530 832.143 L 532.143 815.714 L 533.571 775.714 L 546.429 787.143 L 568.571 802.143 L 581.429 808.571 L 595 813.571 L 615 817.143 L 633.571 815.714 L 643.571 812.857 L 652.857 808.571 L 661.429 801.429 L 665.714 794.286 L 667.143 789.286 L 667.143 775 L 663.571 762.857 L 656.429 748.571 L 650 739.286 L 636.429 752.143 L 620.714 761.429 L 605.714 765 L 592.143 763.571 L 580 758.571 L 567.857 750 L 554.286 735.714 L 544.286 721.429 L 539.286 712.143 L 549.286 702.143 L 554.286 695 L 558.571 686.429 L 561.429 675.714 L 562.143 665.714 L 560.714 655 L 555.714 640 L 551.429 632.857 L 552.857 622.143 L 561.429 604.286 L 577.857 582.143 L 604.286 557.143 L 619.286 546.429 L 638.571 535.714 L 650.714 530.714 L 668.571 525.714 L 677.857 524.286 L 702.143 524.286 L 716.429 526.429 L 733.571 531.429 L 749.286 538.571 L 763.571 547.857 L 772.143 555 L 787.857 572.143 L 797.143 585.714 L 807.143 605.714 L 818.571 596.429 L 827.143 587.143 L 838.571 569.286 L 844.286 551.429 L 845 529.286 L 840.714 510.714 L 830 489.286 L 817.143 472.857 L 801.429 458.571 L 784.286 447.143 L 764.286 437.857 L 740.714 431.429 L 713.571 429.286 L 697.857 430.714 L 677.857 435 L 651.429 445 L 627.857 457.857 L 604.286 474.286 L 580 495 L 562.143 512.857 L 539.286 540 L 538.571 538.571 L 552.143 497.143 L 559.286 462.857 L 561.429 442.143 L 561.429 411.429 L 560 397.143 L 557.143 380 L 552.143 360 L 520.714 275 L 504.286 222.857 Z" fill="#D3BC8D" fill-rule="evenodd" clip-rule="evenodd"/>
</svg>
