<svg xmlns="http://www.w3.org/2000/svg" viewBox="-10.557 64.593 1020.323 870.023" preserveAspectRatio="xMidYMid meet"><path d="M837.39,402.30 L833.43,399.93 L827.89,399.93 L819.19,403.10 L805.74,414.96 L799.42,424.45 L816.82,422.08 L827.89,418.13 L836.60,410.21 Z M602.44,135.72 L548.65,123.06 L496.44,115.94 L452.93,115.15 L418.92,118.31 L363.54,128.60 L310.54,142.84 L244.09,165.78 L178.44,192.67 L249.63,201.38 L289.18,208.50 L291.56,210.87 L259.12,229.85 L214.03,262.29 L171.32,298.68 L135.72,333.48 L108.03,364.33 L82.72,396.77 L62.15,426.83 L40.00,464.01 L97.75,441.07 L148.37,423.66 L205.33,407.05 L214.03,406.26 L187.93,446.60 L170.52,479.04 L156.29,511.47 L144.42,546.28 L136.51,576.34 L129.39,618.26 L126.23,660.98 L127.02,701.32 L147.58,680.76 L175.27,657.82 L208.50,634.08 L228.27,622.22 L228.27,664.94 L233.02,712.40 L243.30,759.86 L252.79,790.71 L275.74,766.19 L289.18,755.12 L316.08,736.92 L337.44,725.85 L344.56,766.19 L354.84,803.37 L376.20,855.58 L392.02,884.06 L440.28,811.28 L501.98,733.76 L524.92,708.44 L564.47,669.68 L596.90,643.58 L616.68,630.92 L641.20,619.85 L660.19,616.68 L678.38,628.55 L709.23,653.07 L762.24,702.12 L784.39,682.34 L794.67,667.31 L804.16,644.37 L807.33,626.96 L807.33,605.61 L804.16,587.41 L789.92,597.70 L774.89,599.28 L766.19,588.20 L760.65,577.13 L754.33,555.77 L753.53,538.37 L757.49,520.17 L765.40,505.14 L800.21,511.47 L827.89,520.96 L847.67,532.04 L859.54,543.11 L867.45,557.35 L870.61,580.29 L869.03,604.82 L861.91,633.29 L892.76,618.26 L917.28,598.49 L937.85,571.59 L944.97,558.14 L952.88,536.78 L956.84,520.17 L959.21,498.81 L958.42,474.29 L952.88,446.60 L945.76,427.62 L933.90,405.47 L914.91,379.36 L891.18,354.05 L894.34,337.44 L893.55,319.24 L887.22,304.21 L880.10,294.72 L861.12,275.74 L831.06,251.21 L800.21,229.06 L759.07,202.96 L733.76,188.72 L680.76,163.40 L644.37,149.17 Z M650.70,581.08 L612.73,593.74 L587.41,607.19 L561.31,625.38 L528.08,654.65 L501.98,682.34 L460.84,732.97 L424.45,783.59 L395.18,829.48 L391.23,823.15 L380.95,792.30 L371.45,751.95 L366.71,715.56 L365.12,667.31 L341.39,678.38 L307.38,698.95 L305.00,698.16 L323.20,657.02 L339.81,630.92 L357.21,609.56 L378.57,588.20 L403.89,568.43 L405.47,569.22 L398.35,588.99 L392.81,615.10 L416.54,593.74 L439.48,576.34 L478.25,552.61 L500.40,541.53 L501.98,542.32 L471.13,576.34 L449.77,604.02 L428.41,637.25 L414.96,663.35 L406.26,684.71 L400.72,708.44 L399.93,741.67 L401.51,759.86 L433.95,711.61 L464.01,674.43 L494.86,642.79 L522.55,619.85 L557.35,597.70 L589.79,584.25 L617.47,578.71 L642.79,578.71 Z M933.90,474.29 L933.10,509.10 L924.40,542.32 L908.58,574.75 L893.55,594.53 L891.18,555.77 L888.01,543.90 L880.89,528.87 L865.07,511.47 L850.04,501.98 L837.39,496.44 L812.07,488.53 L766.19,479.83 L722.68,475.08 L668.10,472.71 L649.11,479.04 L623.80,491.69 L644.37,499.60 L661.77,512.26 L684.71,536.78 L725.85,591.37 L744.83,608.77 L762.24,616.68 L776.47,616.68 L788.34,611.93 L789.92,612.73 L782.01,628.55 L772.52,638.04 L763.82,642.79 L748.79,634.88 L724.26,616.68 L702.12,593.74 L668.10,548.65 L654.65,534.41 L642.79,524.92 L628.55,517.01 L608.77,512.26 L595.32,512.26 L573.96,515.43 L582.67,501.98 L599.28,485.37 L615.89,473.50 L639.62,461.63 L666.52,452.14 L718.73,439.48 L744.83,430.78 L770.94,413.38 L811.28,373.04 L827.89,363.54 L850.04,356.42 L853.21,356.42 L883.27,382.53 L909.37,412.59 L917.28,424.45 L926.78,444.23 Z M735.34,415.75 L719.52,425.25 L694.20,434.74 L582.67,459.26 L527.29,477.45 L479.83,499.60 L456.89,513.05 L429.99,532.04 L428.41,531.25 L463.22,494.07 L493.28,468.75 L532.83,442.65 L578.71,421.29 L546.28,418.13 L491.69,417.33 L542.32,377.78 L573.17,356.42 L587.41,379.36 L604.82,397.56 L616.68,406.26 L635.67,415.75 L657.02,421.29 L675.22,422.87 L704.49,421.29 L732.97,414.96 Z M481.41,348.51 L382.53,409.42 L335.86,442.65 L293.14,477.45 L376.20,452.93 L426.04,441.86 L429.20,442.65 L376.20,499.60 L325.57,562.89 L294.72,608.77 L266.24,661.77 L265.45,655.44 L270.99,623.01 L280.48,591.37 L301.84,543.90 L323.20,509.89 L288.39,523.34 L251.21,542.32 L215.61,564.47 L173.69,596.90 L172.11,596.11 L180.81,570.01 L192.67,542.32 L225.90,480.62 L257.54,433.16 L306.59,373.04 L351.68,361.96 L392.02,354.84 L445.81,349.30 Z M607.19,332.69 L608.77,331.90 L655.44,363.54 L658.61,366.71 L659.40,376.20 L661.77,380.95 L668.10,387.27 L681.55,392.02 L695.00,389.65 L699.74,393.60 L691.04,398.35 L675.22,403.10 L656.23,403.10 L635.67,395.18 L619.85,380.95 L611.14,367.50 L605.61,346.93 Z M542.32,271.78 L544.69,270.99 L565.26,275.74 L605.61,290.77 L644.37,312.12 L715.56,359.59 L732.97,367.50 L748.00,372.24 L759.86,373.83 L760.65,375.41 L753.53,378.57 L739.29,380.95 L725.85,380.15 L710.03,375.41 L683.13,359.59 L640.41,327.15 L611.93,308.17 Z M160.24,369.87 L188.72,341.39 L234.60,302.63 L270.99,276.53 L308.17,253.59 L335.86,239.35 L374.62,223.53 L415.75,210.87 L458.47,200.58 L399.14,183.97 L340.60,174.48 L341.39,172.90 L374.62,167.36 L425.25,162.61 L494.86,163.40 L551.02,170.52 L614.31,185.55 L666.52,204.54 L721.10,231.44 L772.52,263.87 L817.61,299.47 L836.60,317.66 L850.04,333.48 L833.43,343.77 L808.12,347.72 L782.80,324.78 L751.95,304.21 L744.04,300.26 L758.28,319.24 L757.49,320.83 L690.25,279.69 L632.50,251.21 L581.08,233.81 L549.44,228.27 L527.29,227.48 L492.48,231.44 L451.35,240.93 L408.63,255.17 L368.29,273.36 L449.77,292.35 L482.99,302.63 L482.99,305.00 L406.26,309.75 L349.30,317.66 L308.17,325.57 L239.35,342.98 Z" fill="#0A0A0A" fill-rule="evenodd" clip-rule="evenodd"/><path d="M649.11,581.08 L623.80,579.50 L594.53,584.25 L570.01,592.95 L529.66,615.89 L496.44,642.79 L463.22,676.80 L428.41,721.10 L401.51,762.24 L398.35,734.55 L399.14,711.61 L402.30,693.41 L412.59,665.73 L430.78,630.92 L451.35,600.07 L475.87,569.22 L500.40,543.11 L471.92,557.35 L442.65,575.55 L418.13,593.74 L392.81,616.68 L393.60,603.23 L403.89,570.01 L394.39,576.34 L365.92,601.65 L338.23,634.88 L324.78,656.23 L306.59,698.16 L339.02,678.38 L362.75,666.52 L366.71,666.52 L367.50,710.03 L372.24,749.58 L381.74,790.71 L395.18,827.89 L422.08,785.18 L465.59,725.06 L502.77,679.97 L538.37,643.58 L566.84,619.85 L596.11,600.86 L623.01,588.20 Z M642.79,356.42 L641.20,369.08 L644.37,380.15 L648.32,386.48 L657.02,394.39 L669.68,399.93 L679.17,400.72 L698.16,392.81 L694.20,391.23 L683.13,393.60 L669.68,389.65 L660.98,381.74 L657.82,374.62 L657.82,366.71 Z M479.83,349.30 L441.86,350.89 L390.44,356.42 L346.93,364.33 L306.59,374.62 L281.27,403.89 L258.33,433.95 L226.69,481.41 L194.26,541.53 L178.44,579.50 L173.69,595.32 L214.82,563.68 L248.84,542.32 L290.77,520.96 L323.20,508.31 L323.99,510.68 L309.75,532.04 L295.51,558.93 L281.27,592.95 L270.99,629.34 L267.03,659.40 L291.56,611.93 L329.53,555.77 L381.74,491.69 L427.62,442.65 L359.59,458.47 L293.14,479.04 L291.56,477.45 L334.27,442.65 L381.74,408.63 L423.66,381.74 Z M162.61,368.29 L229.85,344.56 L309.75,323.99 L365.92,313.71 L402.30,308.96 L482.20,303.42 L439.48,290.77 L369.87,275.74 L365.92,273.36 L401.51,256.75 L436.32,244.09 L478.25,233.02 L519.38,226.69 L546.28,226.69 L564.47,229.06 L596.90,236.97 L626.17,247.26 L676.80,270.99 L757.49,320.03 L741.67,299.47 L743.25,298.68 L752.74,303.42 L781.22,322.41 L808.12,346.14 L829.48,343.77 L842.13,338.23 L848.46,333.48 L839.76,322.41 L813.65,297.09 L768.56,262.29 L708.44,225.90 L647.53,198.21 L599.28,182.39 L539.16,169.73 L474.29,163.40 L417.33,164.20 L342.98,173.69 L404.68,183.97 L449.77,195.84 L460.05,200.58 L376.20,224.32 L342.18,237.76 L310.54,253.59 L276.53,274.15 L236.18,302.63 L191.88,339.81 Z" fill="#C8102E" fill-rule="evenodd" clip-rule="evenodd"/><path d="M932.31,472.71 L925.98,445.81 L917.28,426.83 L908.58,413.38 L889.60,390.44 L852.42,357.21 L831.06,363.54 L812.07,373.83 L766.19,418.92 L740.88,433.95 L665.73,453.72 L623.80,470.34 L607.19,480.62 L592.95,492.48 L575.55,514.63 L588.20,511.47 L613.52,511.47 L630.13,516.22 L642.79,523.34 L668.89,547.86 L696.58,585.04 L716.35,607.98 L740.09,627.76 L764.61,641.20 L778.85,630.92 L788.34,613.52 L774.89,618.26 L763.82,618.26 L755.12,615.89 L744.04,609.56 L720.31,586.62 L684.71,538.37 L659.40,511.47 L643.58,500.40 L622.22,491.69 L649.91,477.45 L684.71,467.17 L726.64,459.26 L796.25,450.56 L820.77,443.44 L832.64,437.11 L846.09,424.45 L852.42,414.17 L858.74,395.18 L884.06,418.13 L897.51,434.74 L908.58,452.93 L916.49,473.50 L920.45,493.28 L920.45,523.34 L915.70,550.23 L907.79,573.17 L922.82,543.11 L929.94,519.38 L933.10,495.65 Z M838.97,402.30 L837.39,411.01 L827.89,419.71 L816.82,423.66 L797.83,425.25 L805.74,413.38 L818.40,402.30 L828.68,398.35 L833.43,398.35 Z M608.77,333.48 L607.19,340.60 L608.77,357.21 L615.10,372.24 L620.64,380.15 L630.92,390.44 L646.74,399.14 L662.56,402.30 L676.01,401.51 L669.68,400.72 L657.02,395.18 L647.53,386.48 L643.58,380.15 L640.41,369.08 L641.99,355.63 Z M544.69,272.57 L585.04,291.56 L612.73,307.38 L641.20,326.36 L686.29,360.38 L706.07,372.24 L731.38,379.36 L746.41,378.57 L759.07,375.41 L731.38,368.29 L713.19,359.59 L643.58,312.91 L609.56,293.93 L576.34,280.48 Z" fill="#FFFFFF" fill-rule="evenodd" clip-rule="evenodd"/><path d="M908.58,573.17 L906.21,571.59 L907.79,571.59 L912.54,558.93 L919.66,523.34 L919.66,493.28 L915.70,473.50 L907.79,452.93 L896.72,434.74 L883.27,418.13 L858.74,395.98 L855.58,408.63 L847.67,424.45 L832.64,438.69 L816.82,446.60 L815.24,445.81 L815.24,447.39 L807.33,448.19 L807.33,449.77 L804.16,448.98 L804.16,450.56 L792.30,451.35 L791.50,452.93 L787.55,452.14 L786.76,453.72 L781.22,452.93 L781.22,454.51 L775.68,453.72 L775.68,455.31 L769.36,454.51 L769.36,456.10 L763.03,455.31 L763.03,456.89 L756.70,456.10 L744.04,457.68 L743.25,459.26 L737.71,458.47 L737.71,460.05 L732.18,459.26 L707.65,463.22 L669.68,471.92 L722.68,474.29 L766.19,479.04 L812.07,487.74 L845.30,498.81 L857.16,505.14 L871.40,516.22 L884.85,534.41 L892.76,560.52 L894.34,577.13 L893.55,593.74 Z M734.55,415.75 L710.03,421.29 L683.13,423.66 L657.02,422.08 L635.67,416.54 L616.68,407.05 L604.82,398.35 L586.62,379.36 L573.17,357.21 L542.32,378.57 L492.48,417.33 L546.28,417.33 L579.50,421.29 L532.83,443.44 L493.28,469.54 L463.22,494.86 L428.41,532.04 L472.71,502.77 L527.29,476.66 L582.67,458.47 L694.20,433.95 L719.52,424.45 Z" fill="#4A4A4A" fill-rule="evenodd" clip-rule="evenodd"/></svg>