<svg xmlns="http://www.w3.org/2000/svg" viewBox="10.768 123.625 979.179 755.607" preserveAspectRatio="xMidYMid meet"><path id="part-01" fill="#005037" fill-rule="evenodd" d="M 159.286 676.429 L 155.714 677.143 L 112.857 707.143 L 60.000 747.857 L 82.857 741.429 L 89.286 735.000 L 111.429 718.571 L 144.286 691.429 Z M 542.143 755.714 L 477.857 674.286 L 420.000 712.143 L 385.000 732.143 L 427.143 744.286 L 468.571 752.143 L 512.857 756.429 Z M 231.429 470.000 L 227.143 492.857 L 226.429 520.714 L 228.571 537.857 L 232.857 557.143 L 290.714 515.714 Z M 660.714 441.429 L 624.286 469.286 L 515.000 557.857 L 327.143 713.571 L 299.286 738.571 L 275.714 762.143 L 253.571 787.143 L 288.571 768.571 L 295.714 761.429 L 375.000 700.000 L 495.000 602.143 L 497.143 602.857 L 575.714 700.714 L 609.286 670.714 L 615.714 663.571 L 648.571 510.000 L 660.714 446.429 Z M 258.571 418.571 L 369.286 502.143 L 371.429 505.000 L 472.143 432.857 L 511.429 402.857 L 427.857 397.143 L 304.286 391.429 L 265.000 413.571 Z M 812.857 382.143 L 774.286 416.429 L 750.000 435.714 L 734.286 453.571 L 710.714 475.714 L 657.143 690.000 L 585.000 755.000 L 544.286 787.857 L 564.286 785.714 L 567.143 783.571 L 575.000 782.143 L 612.143 767.143 L 644.286 750.714 L 680.714 727.143 L 710.000 703.571 L 740.714 673.571 L 755.000 657.143 L 778.571 625.000 L 792.857 600.714 L 809.286 565.000 L 820.714 529.286 L 826.429 500.000 L 828.571 477.857 L 827.857 443.571 L 821.429 407.143 Z M 640.000 259.286 L 626.429 254.286 L 603.571 248.571 L 560.714 242.857 L 521.429 242.857 L 480.000 247.857 L 445.714 255.714 L 413.571 266.429 L 393.571 275.000 L 352.857 297.143 L 335.000 309.286 L 310.714 328.571 L 288.571 350.000 L 276.429 364.286 L 295.000 353.571 L 495.714 360.714 L 538.571 335.000 L 578.571 313.571 L 584.286 306.429 L 610.714 280.714 Z"/><path id="part-02" fill="#232A2D" fill-rule="evenodd" d="M 347.857 751.429 L 365.714 759.286 L 410.714 773.571 L 449.286 782.143 L 492.143 787.857 L 510.000 788.571 L 547.143 762.143 L 542.857 756.429 L 501.429 756.429 L 468.571 752.857 L 443.571 748.571 L 410.000 740.714 L 386.429 732.857 L 383.571 732.857 L 365.000 743.571 Z M 490.714 464.286 L 445.000 488.571 L 387.143 522.857 L 315.000 569.286 L 155.000 677.857 L 153.571 679.286 L 155.000 680.000 L 155.000 682.143 L 144.286 692.143 L 83.571 740.714 L 120.000 728.571 L 163.571 710.714 L 203.571 690.714 L 237.857 669.286 L 280.000 637.857 L 354.286 578.571 Z M 611.429 456.429 L 546.429 494.286 L 472.143 542.857 L 374.286 612.143 L 172.857 749.286 L 59.286 830.714 L 104.286 819.286 L 156.429 800.000 L 222.857 767.143 L 270.000 738.571 L 316.429 702.857 L 419.286 615.714 Z M 210.714 454.286 L 207.143 467.857 L 203.571 491.429 L 202.857 526.429 L 205.714 550.714 L 211.429 572.857 L 231.429 558.571 L 232.143 555.714 L 227.857 537.857 L 225.714 520.714 L 226.429 492.857 L 230.714 470.000 Z M 831.429 363.571 L 812.857 381.429 L 822.143 407.143 L 828.571 443.571 L 829.286 477.857 L 825.000 513.571 L 815.714 549.286 L 807.143 572.143 L 793.571 600.714 L 779.286 625.000 L 755.714 657.143 L 741.429 673.571 L 710.000 704.286 L 680.714 727.857 L 662.143 740.714 L 627.143 760.714 L 586.429 778.571 L 565.714 785.000 L 596.429 779.286 L 632.857 767.857 L 663.571 754.286 L 700.000 732.857 L 732.857 707.857 L 761.429 680.714 L 782.857 655.714 L 805.714 622.857 L 819.286 598.571 L 835.714 560.000 L 845.714 525.000 L 851.429 490.000 L 852.143 446.429 L 849.286 421.429 L 840.714 386.429 Z M 683.571 287.143 L 662.143 297.857 L 642.857 312.143 L 630.714 324.286 L 617.143 341.429 L 600.000 370.000 L 622.857 361.429 L 650.000 347.857 L 677.857 331.429 L 680.714 324.286 L 684.286 306.429 Z M 753.571 268.571 L 740.714 263.571 L 711.429 257.857 L 685.714 258.571 L 662.857 265.000 L 641.429 276.429 L 622.857 290.000 L 602.143 309.286 L 587.857 325.714 L 542.143 350.000 L 499.286 375.714 L 296.429 369.286 L 221.429 410.000 L 206.429 425.000 L 320.714 512.143 L 320.714 513.571 L 105.714 664.286 L 157.857 637.143 L 247.143 585.714 L 322.143 538.571 L 371.429 504.286 L 258.571 419.286 L 258.571 417.143 L 302.143 391.429 L 400.714 395.000 L 512.143 402.143 L 552.143 371.429 L 577.143 355.000 L 584.286 352.143 L 585.000 354.286 L 580.000 370.714 L 580.714 374.286 L 595.000 349.286 L 616.429 319.286 L 636.429 299.286 L 659.286 283.571 L 675.000 276.429 L 689.286 272.857 L 705.714 272.143 L 714.286 273.571 L 713.571 275.714 L 694.286 283.571 L 693.571 299.286 L 688.571 322.857 L 689.286 324.286 L 704.286 314.286 L 728.571 295.000 L 745.714 278.571 Z M 667.857 246.429 L 650.714 239.286 L 617.857 229.286 L 587.857 223.571 L 555.000 220.714 L 531.429 220.714 L 495.000 223.571 L 465.000 228.571 L 424.286 239.286 L 393.571 250.714 L 362.143 265.714 L 342.143 277.143 L 314.286 296.429 L 292.857 314.286 L 267.857 339.286 L 247.857 364.286 L 232.857 387.857 L 275.000 365.000 L 303.571 334.286 L 316.429 322.857 L 342.857 302.857 L 372.143 285.000 L 393.571 274.286 L 431.429 259.286 L 453.571 252.857 L 480.000 247.143 L 521.429 242.143 L 560.714 242.143 L 587.857 245.000 L 621.429 252.143 L 640.714 259.286 Z M 941.429 172.143 L 926.429 174.286 L 886.429 184.286 L 830.000 202.857 L 776.429 225.000 L 725.714 250.714 L 747.857 255.714 L 785.000 239.286 L 836.429 219.286 L 880.714 205.000 L 885.714 205.000 L 883.571 208.571 L 810.000 265.714 L 710.714 346.429 L 608.571 424.286 L 702.857 375.000 L 725.714 366.429 L 728.571 367.143 L 722.143 379.286 L 705.000 400.714 L 683.571 422.143 L 661.429 441.429 L 661.429 446.429 L 649.286 510.000 L 615.714 665.000 L 580.714 697.143 L 575.000 700.714 L 496.429 602.857 L 495.000 602.857 L 385.714 692.143 L 287.857 768.571 L 340.714 740.000 L 382.143 715.714 L 444.286 675.714 L 484.286 647.857 L 485.714 647.857 L 567.143 748.571 L 642.857 681.429 L 696.429 467.143 L 707.143 457.857 L 739.286 424.286 L 766.429 402.143 L 803.571 368.571 L 837.143 335.000 L 867.857 300.000 L 893.571 265.714 L 915.000 232.143 L 932.143 198.571 Z"/><path id="part-03" fill="#DCDCDC" fill-rule="evenodd" d=""/></svg>