<svg xmlns="http://www.w3.org/2000/svg" width="1000mm" height="1000mm" viewBox="0 0 1000 1000"><path d="M-11.50,170.50 L-12.00,186.50 L-4.00,195.00 L36.00,204.00 L78.00,219.50 L102.00,233.00 L128.00,258.00 L119.50,274.50 L121.00,317.50 L129.50,375.50 L142.50,417.50 L171.50,464.00 L212.50,498.50 L296.00,538.50 L304.50,552.00 L309.00,582.50 L319.00,613.50 L333.00,640.50 L353.50,667.50 L402.00,708.00 L451.00,730.50 L474.00,761.00 L503.00,790.50 L556.50,829.00 L609.50,852.50 L675.50,866.50 L731.00,867.00 L789.50,856.50 L855.00,829.50 L897.00,801.00 L941.50,757.00 L973.00,711.00 L996.00,658.00 L1009.50,593.00 L1010.00,538.50 L998.00,474.50 L974.00,417.00 L940.50,368.00 L898.00,326.00 L851.00,294.50 L801.50,273.50 L760.50,263.50 L723.50,237.00 L682.00,220.00 L645.50,212.50 L612.50,211.00 L541.00,222.00 L484.50,185.00 L432.50,170.50 L387.00,170.50 L330.00,186.00 L316.00,186.00 L275.00,161.50 L242.50,147.00 L196.00,135.00 L154.50,131.00 L91.00,136.00 L12.50,156.00 L-4.00,163.00 Z M5.50,178.50 L39.00,166.00 L91.00,153.50 L159.50,148.50 L196.00,152.50 L232.50,162.00 L314.00,203.50 L336.00,202.50 L387.00,188.00 L437.50,188.50 L477.00,201.00 L521.00,232.00 L539.00,239.50 L556.50,239.50 L612.50,228.50 L645.50,230.00 L676.50,236.50 L715.00,252.50 L752.50,280.00 L788.00,287.50 L842.50,310.00 L886.00,339.00 L927.50,380.00 L958.50,425.50 L982.00,482.00 L992.50,538.50 L992.00,593.00 L980.00,650.50 L957.50,702.50 L928.50,745.00 L885.00,788.00 L846.50,814.00 L782.00,840.50 L731.00,849.50 L675.50,849.00 L617.00,836.50 L565.00,813.50 L515.00,777.50 L487.00,749.00 L462.50,716.00 L410.50,692.50 L366.50,655.50 L348.50,632.00 L335.00,606.00 L325.00,575.00 L319.50,541.00 L306.50,524.00 L221.00,483.00 L201.00,468.50 L177.00,442.50 L158.50,410.00 L145.50,368.00 L138.50,317.50 L137.50,275.50 L152.00,283.00 L157.00,279.00 L157.00,272.00 L136.50,240.00 L113.00,219.00 L85.50,203.50 Z" fill="#000000" fill-rule="evenodd" clip-rule="evenodd"/></svg>