<svg xmlns="http://www.w3.org/2000/svg" viewBox="10.768 123.625 979.179 755.607" preserveAspectRatio="xMidYMid meet"><path d="M0.00,770.66 L0.00,781.45 L86.73,758.74 L126.86,744.85 L169.45,727.40 L180.49,721.88 L166.70,731.24 L0.00,850.92 L0.00,863.36 L107.78,836.74 L162.60,816.57 L231.16,782.80 L233.92,781.13 L191.65,823.40 L201.41,836.34 L332.25,763.59 L359.00,775.82 L406.32,790.90 L446.37,799.74 L489.58,805.47 L493.34,805.57 L485.84,811.61 L571.30,802.85 L572.65,801.72 L598.28,797.02 L637.85,784.88 L674.29,768.51 L709.03,747.98 L743.16,722.25 L775.08,691.90 L796.75,666.53 L818.77,635.07 L836.70,602.91 L852.51,565.50 L863.09,528.44 L868.98,492.56 L869.51,441.55 L866.75,417.79 L857.65,380.88 L844.96,350.14 L881.01,311.87 L930.79,240.33 L971.65,146.82 L881.75,166.61 L823.42,185.71 L704.81,240.15 L699.52,240.24 L656.64,222.05 L621.80,211.49 L591.00,205.65 L556.32,202.50 L529.26,202.50 L491.25,205.62 L460.20,210.89 L418.56,221.82 L387.46,233.41 L352.62,250.05 L331.35,262.28 L302.07,282.67 L282.85,298.69 L252.57,328.98 L233.34,353.01 L198.59,407.45 L179.34,426.70 L184.00,430.32 L180.32,436.08 L180.53,436.30 L187.08,432.71 L195.98,439.62 L189.37,463.21 L185.52,488.53 L184.99,530.98 L187.77,553.83 L194.42,579.81 L38.40,689.06 L53.44,713.17 L147.91,660.96 L105.45,689.91 Z M518.26,419.83 L522.20,416.76 L559.58,389.99 L552.90,431.00 L542.93,416.17 L467.16,456.18 L517.94,419.81 Z M560.02,387.29 L559.63,389.69 L557.24,389.46 Z M781.41,260.84 L794.54,255.39 L775.89,270.47 L783.97,261.90 Z M461.85,527.63 L364.22,597.22 L330.99,619.77 L363.40,593.93 L552.17,435.47 L551.52,439.49 L556.19,441.29 L542.79,451.48 L553.82,468.84 L536.05,479.17 Z M630.17,377.54 L658.62,363.31 L659.30,362.91 L559.77,438.57 L589.62,392.53 Z M650.50,239.00 L667.00,246.00 L640.00,258.50 L610.00,280.50 L583.00,307.00 L578.00,313.50 L539.00,334.00 L495.00,360.50 L295.00,353.00 L233.00,387.00 L248.00,363.50 L266.00,341.00 L295.00,312.00 L313.00,297.00 L341.00,277.50 L361.00,266.00 L394.50,250.00 L424.00,239.00 L464.00,228.50 L493.50,223.50 L530.00,220.50 L555.50,220.50 L588.50,223.50 L617.50,229.00 Z M662.00,297.50 L683.00,287.00 L684.00,306.50 L680.50,324.00 L677.00,331.50 L650.00,347.50 L623.00,361.00 L600.00,369.50 L617.00,341.00 L630.50,324.00 L642.50,312.00 Z M741.00,263.50 L753.00,268.50 L728.00,295.00 L689.50,323.50 L694.00,283.50 L713.00,276.00 L714.00,273.50 L688.00,272.50 L659.00,283.00 L636.50,298.50 L615.50,319.50 L580.50,373.50 L584.00,352.00 L551.00,371.50 L512.50,401.50 L474.50,399.50 L510.50,403.00 L318.50,540.50 L240.00,589.50 L107.00,663.00 L320.50,513.50 L206.50,425.00 L222.50,409.00 L296.50,369.00 L499.50,375.50 L586.50,326.50 L623.00,289.50 L641.50,276.00 L663.50,264.50 L685.00,258.50 L713.50,258.00 Z M886.50,184.00 L941.00,172.00 L915.00,231.50 L867.00,300.50 L801.50,370.00 L740.50,422.50 L696.00,467.00 L643.00,679.50 L567.00,748.00 L484.00,647.50 L383.50,714.50 L254.00,786.50 L328.50,712.00 L660.50,441.50 L658.00,462.50 L661.50,441.00 L705.50,400.00 L728.00,366.50 L703.50,374.00 L610.00,423.00 L708.00,348.50 L885.50,205.00 L836.50,218.50 L748.50,255.00 L726.50,250.00 L830.00,202.50 Z M207.00,467.00 L210.50,454.50 L230.00,469.50 L230.00,472.50 L226.00,491.50 L225.50,524.00 L228.00,539.00 L228.50,536.00 L226.50,523.50 L227.00,492.00 L231.50,470.00 L290.00,515.50 L233.00,556.50 L232.00,554.00 L231.00,558.50 L212.00,572.00 L211.00,572.00 L205.50,550.50 L203.00,530.00 L203.50,490.00 Z M812.50,382.50 L831.00,363.50 L840.50,386.50 L849.00,421.00 L851.50,442.50 L851.00,491.00 L845.50,524.50 L835.50,559.50 L820.50,595.00 L803.50,625.50 L782.50,655.50 L762.00,679.50 L731.50,708.50 L699.00,733.00 L666.00,752.50 L631.50,768.00 L594.00,779.50 L569.50,784.00 L567.00,783.00 L564.00,785.50 L544.50,787.50 L585.50,754.50 L657.00,690.00 L710.50,475.50 L736.50,451.00 L751.00,434.50 L773.50,417.00 Z M444.50,488.50 L489.00,465.00 L352.00,580.00 L280.50,637.00 L234.50,671.00 L204.00,690.00 L162.00,711.00 L120.50,728.00 L81.50,741.50 L60.50,747.00 L116.00,704.50 L314.00,569.50 L387.00,522.50 Z M472.00,542.50 L545.50,494.50 L610.00,457.00 L418.50,615.50 L317.50,701.50 L269.50,738.50 L222.50,767.00 L155.50,800.00 L102.50,819.50 L60.00,830.00 L177.00,746.00 L374.50,612.00 Z M524.00,756.00 L542.50,756.50 L546.50,762.00 L510.00,788.00 L491.00,787.50 L449.50,782.00 L411.00,773.50 L365.50,759.00 L348.00,751.00 L366.00,743.00 L383.00,733.00 L386.50,733.00 L387.00,732.50 L385.50,731.50 L421.00,711.50 L473.00,677.00 L478.00,674.50 L541.50,755.00 Z" fill="#000000" fill-rule="evenodd" clip-rule="evenodd"/></svg>